<svg xmlns="http://www.w3.org/2000/svg" xmlns:xlink="http://www.w3.org/1999/xlink" contentStyleType="text/css" height="1778px" preserveAspectRatio="none" style="width:692px;height:1778px;background:#FFFFFF;" version="1.1" viewBox="0 0 692 1778" width="692px" zoomAndPan="magnify"><title>Affordability v28.0/28.1 &#8212; trigger &#8594; verdict &#8594; manners &#8594; sentence &#8594; toast</title><defs/><g><text fill="#2A2E33" font-family="Segoe UI" font-size="14" font-weight="bold" lengthAdjust="spacing" textLength="588.5059" x="50.6719" y="32.9951">Affordability v28.0/28.1 &#8212; trigger &#8594; verdict &#8594; manners &#8594; sentence &#8594; toast</text><ellipse cx="244.5283" cy="57.2969" fill="#222222" rx="10" ry="10" style="stroke:#222222;stroke-width:1.0;"/><rect fill="none" height="159.8438" rx="4" ry="4" style="stroke:#000000;stroke-width:1.5;" width="581.7305" x="100.1191" y="77.2969"/><path d="M403.9082,77.2969 L403.9082,84.2656 L393.9082,94.2656 L100.1191,94.2656 " fill="none" style="stroke:#000000;stroke-width:1.5;"/><text fill="#2A2E33" font-family="Segoe UI" font-size="12" lengthAdjust="spacing" textLength="293.7891" x="103.1191" y="89.4355">WHEN &#8212; AffordabilityService (dumb on purpose)</text><path d="M398.9375,105.2969 L398.9375,134.2344 L378.9375,138.2344 L398.9375,142.2344 L398.9375,171.1719 A0,0 0 0 0 398.9375,171.1719 L671.8496,171.1719 A0,0 0 0 0 671.8496,171.1719 L671.8496,115.2969 L661.8496,105.2969 L398.9375,105.2969 A0,0 0 0 0 398.9375,105.2969 " fill="#FDF6EC" style="stroke:#C9A45C;stroke-width:0.5;"/><path d="M661.8496,105.2969 L661.8496,115.2969 L671.8496,115.2969 L661.8496,105.2969 " fill="#FDF6EC" style="stroke:#C9A45C;stroke-width:0.5;"/><text fill="#5A4A2A" font-family="Segoe UI" font-size="12" lengthAdjust="spacing" textLength="238.3125" x="404.9375" y="121.4355">The debounce matters: a half-built plan</text><text fill="#5A4A2A" font-family="Segoe UI" font-size="12" lengthAdjust="spacing" textLength="251.9121" x="404.9375" y="135.4043">(three blocks placed, two to go) is exactly</text><text fill="#5A4A2A" font-family="Segoe UI" font-size="12" lengthAdjust="spacing" textLength="192.8496" x="404.9375" y="149.373">when a "Tight" verdict would be</text><text fill="#5A4A2A" font-family="Segoe UI" font-size="12" lengthAdjust="spacing" textLength="125.584" x="404.9375" y="163.3418">wrong-and-alarming.</text><rect fill="#FFFFFF" height="47.9375" rx="4" ry="4" style="stroke:#616974;stroke-width:0.5;" width="268.8184" x="110.1191" y="114.2656"/><text fill="#2A2E33" font-family="Segoe UI" font-size="12" lengthAdjust="spacing" textLength="111.8438" x="120.1191" y="135.4043">20-min timer fires,</text><text fill="#2A2E33" font-family="Segoe UI" font-size="12" lengthAdjust="spacing" textLength="248.8184" x="120.1191" y="149.373">or 30 s of quiet after AppData::changed()</text><rect fill="#FFFFFF" height="33.9688" rx="4" ry="4" style="stroke:#616974;stroke-width:0.5;" width="227.9727" x="130.542" y="191.1719"/><text fill="#2A2E33" font-family="Segoe UI" font-size="12" lengthAdjust="spacing" textLength="207.9727" x="140.542" y="212.3105">for each open task with a deadline</text><rect fill="none" height="546.3354" rx="4" ry="4" style="stroke:#000000;stroke-width:1.5;" width="598.1025" x="29.8945" y="247.1406"/><path d="M333.9355,247.1406 L333.9355,254.1094 L323.9355,264.1094 L29.8945,264.1094 " fill="none" style="stroke:#000000;stroke-width:1.5;"/><text fill="#2A2E33" font-family="Segoe UI" font-size="12" lengthAdjust="spacing" textLength="294.041" x="32.8945" y="259.2793">WHAT IS TRUE &#8212; afford:: (pure, tested headless)</text><rect fill="#FFFFFF" height="33.9688" rx="4" ry="4" style="stroke:#616974;stroke-width:0.5;" width="252.1484" x="118.4541" y="281.1094"/><text fill="#2A2E33" font-family="Segoe UI" font-size="12" lengthAdjust="spacing" textLength="232.1484" x="128.4541" y="302.248">affordability(data, task, now) &#8594; Report</text><path d="M367.165,381.8198 L367.165,410.7573 L347.165,414.7573 L367.165,418.7573 L367.165,447.6948 A0,0 0 0 0 367.165,447.6948 L595.9971,447.6948 A0,0 0 0 0 595.9971,447.6948 L595.9971,391.8198 L585.9971,381.8198 L367.165,381.8198 A0,0 0 0 0 367.165,381.8198 " fill="#FDF6EC" style="stroke:#C9A45C;stroke-width:0.5;"/><path d="M585.9971,381.8198 L585.9971,391.8198 L595.9971,391.8198 L585.9971,381.8198 " fill="#FDF6EC" style="stroke:#C9A45C;stroke-width:0.5;"/><text fill="#5A4A2A" font-family="Segoe UI" font-size="12" lengthAdjust="spacing" textLength="207.832" x="373.165" y="397.9585">&#167;H.3 &#8212; the honest hand. Unknown</text><text fill="#5A4A2A" font-family="Segoe UI" font-size="12" lengthAdjust="spacing" textLength="203.3672" x="373.165" y="411.9272">never toasts: "I don't know" as an</text><text fill="#5A4A2A" font-family="Segoe UI" font-size="12" lengthAdjust="spacing" textLength="199.0254" x="373.165" y="425.896">interruption is noise. Chat serves</text><text fill="#5A4A2A" font-family="Segoe UI" font-size="12" lengthAdjust="spacing" textLength="57.1406" x="373.165" y="439.8647">it in 28.1.</text><rect fill="#FFFFFF" height="47.9375" rx="4" ry="4" style="stroke:#616974;stroke-width:0.5;" width="205.2734" x="141.8916" y="390.7886"/><text fill="#2A2E33" font-family="Segoe UI" font-size="12" lengthAdjust="spacing" textLength="55.541" x="151.8916" y="411.9272">verdict =</text><text fill="#2A2E33" font-family="Segoe UI" font-size="12" font-weight="bold" lengthAdjust="spacing" textLength="62.6836" x="211.2471" y="411.9272">Unknown</text><text fill="#2A2E33" font-family="Segoe UI" font-size="12" lengthAdjust="spacing" textLength="185.2734" x="151.8916" y="425.896">"&#8230;I can't tell how much is left"</text><ellipse cx="244.5283" cy="478.6948" fill="none" rx="11" ry="11" style="stroke:#222222;stroke-width:1.0;"/><ellipse cx="244.5283" cy="478.6948" fill="#222222" rx="6" ry="6" style="stroke:#222222;stroke-width:1.0;"/><polygon fill="#EDF4F1" points="180.8252,335.0781,308.2314,335.0781,320.2314,347.0781,308.2314,359.0781,180.8252,359.0781,168.8252,347.0781,180.8252,335.0781" style="stroke:#2F7E6E;stroke-width:0.5;"/><text fill="#616974" font-family="Segoe UI" font-size="11" lengthAdjust="spacing" textLength="13.7017" x="248.5283" y="369.2886">no</text><text fill="#2A2E33" font-family="Segoe UI" font-size="12" lengthAdjust="spacing" textLength="127.4063" x="180.8252" y="351.2324">blocks ever planned?</text><text fill="#616974" font-family="Segoe UI" font-size="11" lengthAdjust="spacing" textLength="19.0083" x="320.2314" y="344.4839">yes</text><rect fill="#FFFFFF" height="47.9375" rx="4" ry="4" style="stroke:#616974;stroke-width:0.5;" width="269.6328" x="109.7119" y="531.6948"/><text fill="#2A2E33" font-family="Segoe UI" font-size="12" lengthAdjust="spacing" textLength="216.041" x="119.7119" y="552.8335">outstanding = plannedAll &#8722; tracked</text><text fill="#2A2E33" font-family="Segoe UI" font-size="12" lengthAdjust="spacing" textLength="249.6328" x="119.7119" y="566.8022">capacity = plannedAhead + free daytime</text><polygon fill="#EDF4F1" points="188.9141,599.6323,300.1426,599.6323,312.1426,613.6011,300.1426,627.5698,188.9141,627.5698,176.9141,613.6011,188.9141,599.6323" style="stroke:#2F7E6E;stroke-width:0.5;"/><text fill="#2A2E33" font-family="Segoe UI" font-size="12" lengthAdjust="spacing" textLength="111.2285" x="188.9141" y="610.771">cramped, last-call,</text><text fill="#2A2E33" font-family="Segoe UI" font-size="12" lengthAdjust="spacing" textLength="69.1699" x="188.9141" y="624.7397">or slipping?</text><text fill="#616974" font-family="Segoe UI" font-size="11" lengthAdjust="spacing" textLength="13.7017" x="163.2124" y="611.0068">no</text><text fill="#616974" font-family="Segoe UI" font-size="11" lengthAdjust="spacing" textLength="19.0083" x="312.1426" y="611.0068">yes</text><rect fill="#FFFFFF" height="33.9688" rx="4" ry="4" style="stroke:#616974;stroke-width:0.5;" width="153.6582" x="77.0674" y="637.5698"/><text fill="#2A2E33" font-family="Segoe UI" font-size="12" lengthAdjust="spacing" textLength="133.6582" x="87.0674" y="658.7085">verdict = Comfortable</text><rect fill="#FFFFFF" height="47.9375" rx="4" ry="4" style="stroke:#616974;stroke-width:0.5;" width="208.0039" x="49.8945" y="691.5386"/><text fill="#2A2E33" font-family="Segoe UI" font-size="12" lengthAdjust="spacing" textLength="140.5371" x="59.8945" y="712.6772">service re-arms silently</text><text fill="#2A2E33" font-family="Segoe UI" font-size="12" lengthAdjust="spacing" textLength="188.0039" x="59.8945" y="726.646">(a FUTURE Tight is news again)</text><ellipse cx="153.8965" cy="770.4761" fill="none" rx="11" ry="11" style="stroke:#222222;stroke-width:1.0;"/><ellipse cx="153.8965" cy="770.4761" fill="#222222" rx="6" ry="6" style="stroke:#222222;stroke-width:1.0;"/><rect fill="#FFFFFF" height="33.9688" rx="4" ry="4" style="stroke:#616974;stroke-width:0.5;" width="114.5234" x="277.8984" y="637.5698"/><text fill="#2A2E33" font-family="Segoe UI" font-size="12" lengthAdjust="spacing" textLength="55.541" x="287.8984" y="658.7085">verdict =</text><text fill="#2A2E33" font-family="Segoe UI" font-size="12" font-weight="bold" lengthAdjust="spacing" textLength="35.168" x="347.2539" y="658.7085">Tight</text><rect fill="none" height="409.0391" rx="4" ry="4" style="stroke:#000000;stroke-width:1.5;" width="327.375" x="86.8408" y="803.4761"/><path d="M381.2139,803.4761 L381.2139,810.4448 L371.2139,820.4448 L86.8408,820.4448 " fill="none" style="stroke:#000000;stroke-width:1.5;"/><text fill="#2A2E33" font-family="Segoe UI" font-size="12" lengthAdjust="spacing" textLength="284.373" x="89.8408" y="815.6147">MANNERS &#8212; afford::decide (&#167;F.3, load-bearing)</text><rect fill="#FFFFFF" height="47.9375" rx="4" ry="4" style="stroke:#616974;stroke-width:0.5;" width="205.2031" x="141.9268" y="889.7847"/><text fill="#2A2E33" font-family="Segoe UI" font-size="12" lengthAdjust="spacing" textLength="185.2031" x="151.9268" y="910.9233">silence &#8212; a secretary does not</text><text fill="#2A2E33" font-family="Segoe UI" font-size="12" lengthAdjust="spacing" textLength="126.6152" x="151.9268" y="924.8921">mention it four times</text><ellipse cx="244.5283" cy="969.269" fill="none" rx="11" ry="11" style="stroke:#222222;stroke-width:1.0;"/><ellipse cx="244.5283" cy="969.269" fill="#222222" rx="6" ry="6" style="stroke:#222222;stroke-width:1.0;"/><polygon fill="#EDF4F1" points="186.8164,837.4448,302.2402,837.4448,314.2402,851.4136,302.2402,865.3823,186.8164,865.3823,174.8164,851.4136,186.8164,837.4448" style="stroke:#2F7E6E;stroke-width:0.5;"/><text fill="#616974" font-family="Segoe UI" font-size="11" lengthAdjust="spacing" textLength="19.0083" x="248.5283" y="875.5928">yes</text><text fill="#2A2E33" font-family="Segoe UI" font-size="12" lengthAdjust="spacing" textLength="114.2227" x="186.8164" y="848.5835">already said Tight?</text><text fill="#2A2E33" font-family="Segoe UI" font-size="12" lengthAdjust="spacing" textLength="115.4238" x="186.8164" y="862.5522">(change-of-verdict)</text><text fill="#616974" font-family="Segoe UI" font-size="11" lengthAdjust="spacing" textLength="13.7017" x="314.2402" y="848.8193">no</text><rect fill="#FFFFFF" height="61.9063" rx="4" ry="4" style="stroke:#616974;stroke-width:0.5;" width="275.375" x="106.8408" y="1074.6089"/><text fill="#2A2E33" font-family="Segoe UI" font-size="12" lengthAdjust="spacing" textLength="255.375" x="116.8408" y="1095.7476">store NOTHING &#8212; the heads-up was never</text><text fill="#2A2E33" font-family="Segoe UI" font-size="12" lengthAdjust="spacing" textLength="223.8633" x="116.8408" y="1109.7163">delivered, so it is still owed. The next</text><text fill="#2A2E33" font-family="Segoe UI" font-size="12" lengthAdjust="spacing" textLength="228.6445" x="116.8408" y="1123.6851">sweep outside the suppression says it</text><ellipse cx="244.5283" cy="1167.5151" fill="none" rx="11" ry="11" style="stroke:#222222;stroke-width:1.0;"/><ellipse cx="244.5283" cy="1167.5151" fill="#222222" rx="6" ry="6" style="stroke:#222222;stroke-width:1.0;"/><polygon fill="#EDF4F1" points="170.0762,1022.269,318.9805,1022.269,330.9805,1036.2378,318.9805,1050.2065,170.0762,1050.2065,158.0762,1036.2378,170.0762,1022.269" style="stroke:#2F7E6E;stroke-width:0.5;"/><text fill="#616974" font-family="Segoe UI" font-size="11" lengthAdjust="spacing" textLength="63.1694" x="248.5283" y="1060.417">suppressed</text><text fill="#2A2E33" font-family="Segoe UI" font-size="12" lengthAdjust="spacing" textLength="146.502" x="170.0762" y="1033.4077">quiet hours? &#183; daily cap?</text><text fill="#2A2E33" font-family="Segoe UI" font-size="12" lengthAdjust="spacing" textLength="148.9043" x="170.0762" y="1047.3765">&#183; task dismissed &#8212; &#167;H.5?</text><text fill="#616974" font-family="Segoe UI" font-size="11" lengthAdjust="spacing" textLength="77.7627" x="330.9805" y="1033.6436">clear to speak</text><rect fill="none" height="379.5313" rx="4" ry="4" style="stroke:#000000;stroke-width:1.5;" width="640.6768" x="11" y="1222.5151"/><path d="M418.5176,1222.5151 L418.5176,1229.4839 L408.5176,1239.4839 L11,1239.4839 " fill="none" style="stroke:#000000;stroke-width:1.5;"/><text fill="#2A2E33" font-family="Segoe UI" font-size="12" lengthAdjust="spacing" textLength="397.5176" x="14" y="1234.6538">SENTENCE &#8212; 28.1: the model phrases, the C++ voice guarantees</text><path d="M384.3271,1250.5151 L384.3271,1279.4526 L364.3271,1283.4526 L384.3271,1287.4526 L384.3271,1316.3901 A0,0 0 0 0 384.3271,1316.3901 L641.6768,1316.3901 A0,0 0 0 0 641.6768,1316.3901 L641.6768,1260.5151 L631.6768,1250.5151 L384.3271,1250.5151 A0,0 0 0 0 384.3271,1250.5151 " fill="#FDF6EC" style="stroke:#C9A45C;stroke-width:0.5;"/><path d="M631.6768,1250.5151 L631.6768,1260.5151 L641.6768,1260.5151 L631.6768,1250.5151 " fill="#FDF6EC" style="stroke:#C9A45C;stroke-width:0.5;"/><text fill="#5A4A2A" font-family="Segoe UI" font-size="12" lengthAdjust="spacing" textLength="205.9746" x="390.3271" y="1266.6538">No route walk: the fallback seat IS</text><text fill="#5A4A2A" font-family="Segoe UI" font-size="12" lengthAdjust="spacing" textLength="198.2168" x="390.3271" y="1280.6226">afford::sentence(), the quick-add</text><text fill="#5A4A2A" font-family="Segoe UI" font-size="12" lengthAdjust="spacing" textLength="236.3496" x="390.3271" y="1294.5913">argument again. A nudge cannot fail &#8212;</text><text fill="#5A4A2A" font-family="Segoe UI" font-size="12" lengthAdjust="spacing" textLength="193.3945" x="390.3271" y="1308.5601">only sound more or less human.</text><rect fill="#FFFFFF" height="47.9375" rx="4" ry="4" style="stroke:#616974;stroke-width:0.5;" width="239.5977" x="124.7295" y="1259.4839"/><text fill="#2A2E33" font-family="Segoe UI" font-size="12" lengthAdjust="spacing" textLength="190.3652" x="134.7295" y="1280.6226">NudgeClient.phrase &#8212; one seat</text><text fill="#2A2E33" font-family="Segoe UI" font-size="12" lengthAdjust="spacing" textLength="219.5977" x="134.7295" y="1294.5913">(the configured primary), 8 s budget</text><polygon fill="#EDF4F1" points="169.209,1336.3901,319.8477,1336.3901,331.8477,1357.3433,319.8477,1378.2964,169.209,1378.2964,157.209,1357.3433,169.209,1336.3901" style="stroke:#2F7E6E;stroke-width:0.5;"/><text fill="#2A2E33" font-family="Segoe UI" font-size="12" lengthAdjust="spacing" textLength="150.6387" x="169.209" y="1347.5288">reply arrives AND passes</text><text fill="#2A2E33" font-family="Segoe UI" font-size="12" lengthAdjust="spacing" textLength="147.8613" x="169.209" y="1361.4976">nudge::accept &#8212; length,</text><text fill="#2A2E33" font-family="Segoe UI" font-size="12" lengthAdjust="spacing" textLength="145.3477" x="169.209" y="1375.4663">whitespace, markdown?</text><text fill="#616974" font-family="Segoe UI" font-size="11" lengthAdjust="spacing" textLength="19.0083" x="138.2007" y="1354.749">yes</text><text fill="#616974" font-family="Segoe UI" font-size="11" lengthAdjust="spacing" textLength="169.2324" x="331.8477" y="1341.9443">no key &#183; unreachable &#183; timeout</text><text fill="#616974" font-family="Segoe UI" font-size="11" lengthAdjust="spacing" textLength="84.251" x="331.8477" y="1354.749">&#183; essay &#183; empty</text><rect fill="#FFFFFF" height="75.875" rx="4" ry="4" style="stroke:#616974;stroke-width:0.5;" width="213.9395" x="23" y="1388.2964"/><text fill="#2A2E33" font-family="Segoe UI" font-size="12" lengthAdjust="spacing" textLength="164.5781" x="33" y="1409.4351">the model's wording, in the</text><text fill="#2A2E33" font-family="Segoe UI" font-size="12" lengthAdjust="spacing" textLength="182.5371" x="33" y="1423.4038">chat's persona voice &#8212; locked</text><text fill="#2A2E33" font-family="Segoe UI" font-size="12" lengthAdjust="spacing" textLength="159.082" x="33" y="1437.3726">rules (inform-never-forbid,</text><text fill="#2A2E33" font-family="Segoe UI" font-size="12" lengthAdjust="spacing" textLength="193.9395" x="33" y="1451.3413">non-shaming) above every style</text><rect fill="#FFFFFF" height="61.9063" rx="4" ry="4" style="stroke:#616974;stroke-width:0.5;" width="204.2949" x="256.9395" y="1388.2964"/><text fill="#2A2E33" font-family="Segoe UI" font-size="12" lengthAdjust="spacing" textLength="184.2949" x="266.9395" y="1409.4351">afford::sentence(report) &#8212; the</text><text fill="#2A2E33" font-family="Segoe UI" font-size="12" lengthAdjust="spacing" textLength="145.3242" x="266.9395" y="1423.4038">v28.0 voice, kept warm:</text><text fill="#2A2E33" font-family="Segoe UI" font-size="12" lengthAdjust="spacing" textLength="19.3418" x="266.9395" y="1437.3726">&#171;&#8230;</text><text fill="#2A2E33" font-family="Segoe UI" font-size="12" font-weight="bold" lengthAdjust="spacing" textLength="63.5684" x="286.2813" y="1437.3726">Your call.</text><text fill="#2A2E33" font-family="Segoe UI" font-size="12" lengthAdjust="spacing" textLength="7.3418" x="349.8496" y="1437.3726">&#187;</text><polygon fill="#EDF4F1" points="244.5283,1470.1714,256.5283,1482.1714,244.5283,1494.1714,232.5283,1482.1714,244.5283,1470.1714" style="stroke:#2F7E6E;stroke-width:0.5;"/><rect fill="#FFFFFF" height="75.875" rx="4" ry="4" style="stroke:#616974;stroke-width:0.5;" width="247.5664" x="120.7451" y="1514.1714"/><text fill="#2A2E33" font-family="Segoe UI" font-size="12" lengthAdjust="spacing" textLength="227.5664" x="130.7451" y="1535.3101">deliver() &#8212; the ONE exit: cap bump +</text><text fill="#2A2E33" font-family="Segoe UI" font-size="12" lengthAdjust="spacing" textLength="224.5137" x="130.7451" y="1549.2788">verdict store happen at DELIVERY, so</text><text fill="#2A2E33" font-family="Segoe UI" font-size="12" lengthAdjust="spacing" textLength="200.1621" x="130.7451" y="1563.2476">the two voices cannot diverge on</text><text fill="#2A2E33" font-family="Segoe UI" font-size="12" lengthAdjust="spacing" textLength="77.1387" x="130.7451" y="1577.2163">bookkeeping</text><rect fill="#FFFFFF" height="33.9688" rx="4" ry="4" style="stroke:#616974;stroke-width:0.5;" width="202.9297" x="143.0635" y="1622.0464"/><text fill="#2A2E33" font-family="Segoe UI" font-size="12" lengthAdjust="spacing" textLength="182.9297" x="153.0635" y="1643.1851">emit nudge(title, body, taskId)</text><path d="M391.6104,1674.0308 L391.6104,1695.9839 L371.6104,1699.9839 L391.6104,1703.9839 L391.6104,1725.937 A0,0 0 0 0 391.6104,1725.937 L653.167,1725.937 A0,0 0 0 0 653.167,1725.937 L653.167,1684.0308 L643.167,1674.0308 L391.6104,1674.0308 A0,0 0 0 0 391.6104,1674.0308 " fill="#FDF6EC" style="stroke:#C9A45C;stroke-width:0.5;"/><path d="M643.167,1674.0308 L643.167,1684.0308 L653.167,1684.0308 L643.167,1674.0308 " fill="#FDF6EC" style="stroke:#C9A45C;stroke-width:0.5;"/><text fill="#5A4A2A" font-family="Segoe UI" font-size="12" lengthAdjust="spacing" textLength="224.584" x="397.6104" y="1690.1694">taskId rides along unused &#8212; the &#167;G.1</text><text fill="#5A4A2A" font-family="Segoe UI" font-size="12" lengthAdjust="spacing" textLength="213.0586" x="397.6104" y="1704.1382">seam, for when tapping a toast has</text><text fill="#5A4A2A" font-family="Segoe UI" font-size="12" lengthAdjust="spacing" textLength="240.5566" x="397.6104" y="1718.1069">somewhere to GO (the check-in, v28.2).</text><rect fill="#FFFFFF" height="47.9375" rx="4" ry="4" style="stroke:#616974;stroke-width:0.5;" width="254.1641" x="117.4463" y="1676.0151"/><text fill="#2A2E33" font-family="Segoe UI" font-size="12" lengthAdjust="spacing" textLength="226.8105" x="127.4463" y="1697.1538">MainWindow &#8594; ToastSpec, Kind::Alert</text><text fill="#2A2E33" font-family="Segoe UI" font-size="12" lengthAdjust="spacing" textLength="234.1641" x="127.4463" y="1711.1226">&#8594; NotificationToast, danger-red accent</text><ellipse cx="244.5283" cy="1756.937" fill="none" rx="11" ry="11" style="stroke:#222222;stroke-width:1.0;"/><ellipse cx="244.5283" cy="1756.937" fill="#222222" rx="6" ry="6" style="stroke:#222222;stroke-width:1.0;"/><line style="stroke:#616974;stroke-width:1.0;" x1="244.5283" x2="244.5283" y1="162.2031" y2="191.1719"/><polygon fill="#616974" points="240.5283,181.1719,244.5283,191.1719,248.5283,181.1719,244.5283,185.1719" style="stroke:#616974;stroke-width:1.0;"/><line style="stroke:#616974;stroke-width:1.0;" x1="244.5283" x2="244.5283" y1="67.2969" y2="114.2656"/><polygon fill="#616974" points="240.5283,104.2656,244.5283,114.2656,248.5283,104.2656,244.5283,108.2656" style="stroke:#616974;stroke-width:1.0;"/><line style="stroke:#616974;stroke-width:1.0;" x1="244.5283" x2="244.5283" y1="438.7261" y2="467.6948"/><polygon fill="#616974" points="240.5283,457.6948,244.5283,467.6948,248.5283,457.6948,244.5283,461.6948" style="stroke:#616974;stroke-width:1.0;"/><line style="stroke:#616974;stroke-width:1.0;" x1="244.5283" x2="244.5283" y1="359.0781" y2="390.7886"/><polygon fill="#616974" points="240.5283,380.7886,244.5283,390.7886,248.5283,380.7886,244.5283,384.7886" style="stroke:#616974;stroke-width:1.0;"/><line style="stroke:#616974;stroke-width:1.0;" x1="320.2314" x2="605.9971" y1="347.0781" y2="347.0781"/><polygon fill="#616974" points="601.9971,430.2573,605.9971,440.2573,609.9971,430.2573,605.9971,434.2573" style="stroke:#616974;stroke-width:1.0;"/><line style="stroke:#616974;stroke-width:1.0;" x1="605.9971" x2="605.9971" y1="347.0781" y2="511.6948"/><line style="stroke:#616974;stroke-width:1.0;" x1="605.9971" x2="244.5283" y1="511.6948" y2="511.6948"/><line style="stroke:#616974;stroke-width:1.0;" x1="244.5283" x2="244.5283" y1="511.6948" y2="531.6948"/><polygon fill="#616974" points="240.5283,521.6948,244.5283,531.6948,248.5283,521.6948,244.5283,525.6948" style="stroke:#616974;stroke-width:1.0;"/><line style="stroke:#616974;stroke-width:1.0;" x1="244.5283" x2="244.5283" y1="315.0781" y2="335.0781"/><polygon fill="#616974" points="240.5283,325.0781,244.5283,335.0781,248.5283,325.0781,244.5283,329.0781" style="stroke:#616974;stroke-width:1.0;"/><line style="stroke:#616974;stroke-width:1.0;" x1="153.8965" x2="153.8965" y1="671.5386" y2="691.5386"/><polygon fill="#616974" points="149.8965,681.5386,153.8965,691.5386,157.8965,681.5386,153.8965,685.5386" style="stroke:#616974;stroke-width:1.0;"/><line style="stroke:#616974;stroke-width:1.0;" x1="153.8965" x2="153.8965" y1="739.4761" y2="759.4761"/><polygon fill="#616974" points="149.8965,749.4761,153.8965,759.4761,157.8965,749.4761,153.8965,753.4761" style="stroke:#616974;stroke-width:1.0;"/><line style="stroke:#616974;stroke-width:1.0;" x1="176.9141" x2="153.8965" y1="613.6011" y2="613.6011"/><line style="stroke:#616974;stroke-width:1.0;" x1="153.8965" x2="153.8965" y1="613.6011" y2="637.5698"/><polygon fill="#616974" points="149.8965,627.5698,153.8965,637.5698,157.8965,627.5698,153.8965,631.5698" style="stroke:#616974;stroke-width:1.0;"/><line style="stroke:#616974;stroke-width:1.0;" x1="312.1426" x2="335.1602" y1="613.6011" y2="613.6011"/><line style="stroke:#616974;stroke-width:1.0;" x1="335.1602" x2="335.1602" y1="613.6011" y2="637.5698"/><polygon fill="#616974" points="331.1602,627.5698,335.1602,637.5698,339.1602,627.5698,335.1602,631.5698" style="stroke:#616974;stroke-width:1.0;"/><line style="stroke:#616974;stroke-width:1.0;" x1="335.1602" x2="335.1602" y1="671.5386" y2="786.4761"/><line style="stroke:#616974;stroke-width:1.0;" x1="335.1602" x2="244.5283" y1="786.4761" y2="786.4761"/><line style="stroke:#616974;stroke-width:1.0;" x1="244.5283" x2="244.5283" y1="786.4761" y2="837.4448"/><polygon fill="#616974" points="240.5283,827.4448,244.5283,837.4448,248.5283,827.4448,244.5283,831.4448" style="stroke:#616974;stroke-width:1.0;"/><line style="stroke:#616974;stroke-width:1.0;" x1="244.5283" x2="244.5283" y1="579.6323" y2="599.6323"/><polygon fill="#616974" points="240.5283,589.6323,244.5283,599.6323,248.5283,589.6323,244.5283,593.6323" style="stroke:#616974;stroke-width:1.0;"/><line style="stroke:#616974;stroke-width:1.0;" x1="244.5283" x2="244.5283" y1="225.1406" y2="281.1094"/><polygon fill="#616974" points="240.5283,271.1094,244.5283,281.1094,248.5283,271.1094,244.5283,275.1094" style="stroke:#616974;stroke-width:1.0;"/><line style="stroke:#616974;stroke-width:1.0;" x1="244.5283" x2="244.5283" y1="937.7222" y2="958.269"/><polygon fill="#616974" points="240.5283,948.269,244.5283,958.269,248.5283,948.269,244.5283,952.269" style="stroke:#616974;stroke-width:1.0;"/><line style="stroke:#616974;stroke-width:1.0;" x1="244.5283" x2="244.5283" y1="865.3823" y2="889.7847"/><polygon fill="#616974" points="240.5283,879.7847,244.5283,889.7847,248.5283,879.7847,244.5283,883.7847" style="stroke:#616974;stroke-width:1.0;"/><line style="stroke:#616974;stroke-width:1.0;" x1="314.2402" x2="357.1299" y1="851.4136" y2="851.4136"/><polygon fill="#616974" points="353.1299,928.269,357.1299,938.269,361.1299,928.269,357.1299,932.269" style="stroke:#616974;stroke-width:1.0;"/><line style="stroke:#616974;stroke-width:1.0;" x1="357.1299" x2="357.1299" y1="851.4136" y2="1002.269"/><line style="stroke:#616974;stroke-width:1.0;" x1="357.1299" x2="244.5283" y1="1002.269" y2="1002.269"/><line style="stroke:#616974;stroke-width:1.0;" x1="244.5283" x2="244.5283" y1="1002.269" y2="1022.269"/><polygon fill="#616974" points="240.5283,1012.269,244.5283,1022.269,248.5283,1012.269,244.5283,1016.269" style="stroke:#616974;stroke-width:1.0;"/><line style="stroke:#616974;stroke-width:1.0;" x1="244.5283" x2="244.5283" y1="1136.5151" y2="1156.5151"/><polygon fill="#616974" points="240.5283,1146.5151,244.5283,1156.5151,248.5283,1146.5151,244.5283,1150.5151" style="stroke:#616974;stroke-width:1.0;"/><line style="stroke:#616974;stroke-width:1.0;" x1="244.5283" x2="244.5283" y1="1050.2065" y2="1074.6089"/><polygon fill="#616974" points="240.5283,1064.6089,244.5283,1074.6089,248.5283,1064.6089,244.5283,1068.6089" style="stroke:#616974;stroke-width:1.0;"/><line style="stroke:#616974;stroke-width:1.0;" x1="330.9805" x2="392.2158" y1="1036.2378" y2="1036.2378"/><polygon fill="#616974" points="388.2158,1120.0776,392.2158,1130.0776,396.2158,1120.0776,392.2158,1124.0776" style="stroke:#616974;stroke-width:1.0;"/><line style="stroke:#616974;stroke-width:1.0;" x1="392.2158" x2="392.2158" y1="1036.2378" y2="1200.5151"/><line style="stroke:#616974;stroke-width:1.0;" x1="392.2158" x2="244.5283" y1="1200.5151" y2="1200.5151"/><line style="stroke:#616974;stroke-width:1.0;" x1="244.5283" x2="244.5283" y1="1200.5151" y2="1259.4839"/><polygon fill="#616974" points="240.5283,1249.4839,244.5283,1259.4839,248.5283,1249.4839,244.5283,1253.4839" style="stroke:#616974;stroke-width:1.0;"/><line style="stroke:#616974;stroke-width:1.0;" x1="157.209" x2="129.9697" y1="1357.3433" y2="1357.3433"/><line style="stroke:#616974;stroke-width:1.0;" x1="129.9697" x2="129.9697" y1="1357.3433" y2="1388.2964"/><polygon fill="#616974" points="125.9697,1378.2964,129.9697,1388.2964,133.9697,1378.2964,129.9697,1382.2964" style="stroke:#616974;stroke-width:1.0;"/><line style="stroke:#616974;stroke-width:1.0;" x1="331.8477" x2="359.0869" y1="1357.3433" y2="1357.3433"/><line style="stroke:#616974;stroke-width:1.0;" x1="359.0869" x2="359.0869" y1="1357.3433" y2="1388.2964"/><polygon fill="#616974" points="355.0869,1378.2964,359.0869,1388.2964,363.0869,1378.2964,359.0869,1382.2964" style="stroke:#616974;stroke-width:1.0;"/><line style="stroke:#616974;stroke-width:1.0;" x1="129.9697" x2="129.9697" y1="1464.1714" y2="1482.1714"/><line style="stroke:#616974;stroke-width:1.0;" x1="129.9697" x2="232.5283" y1="1482.1714" y2="1482.1714"/><polygon fill="#616974" points="222.5283,1478.1714,232.5283,1482.1714,222.5283,1486.1714,226.5283,1482.1714" style="stroke:#616974;stroke-width:1.0;"/><line style="stroke:#616974;stroke-width:1.0;" x1="359.0869" x2="359.0869" y1="1450.2026" y2="1482.1714"/><line style="stroke:#616974;stroke-width:1.0;" x1="359.0869" x2="256.5283" y1="1482.1714" y2="1482.1714"/><polygon fill="#616974" points="266.5283,1478.1714,256.5283,1482.1714,266.5283,1486.1714,262.5283,1482.1714" style="stroke:#616974;stroke-width:1.0;"/><line style="stroke:#616974;stroke-width:1.0;" x1="244.5283" x2="244.5283" y1="1307.4214" y2="1336.3901"/><polygon fill="#616974" points="240.5283,1326.3901,244.5283,1336.3901,248.5283,1326.3901,244.5283,1330.3901" style="stroke:#616974;stroke-width:1.0;"/><line style="stroke:#616974;stroke-width:1.0;" x1="244.5283" x2="244.5283" y1="1494.1714" y2="1514.1714"/><polygon fill="#616974" points="240.5283,1504.1714,244.5283,1514.1714,248.5283,1504.1714,244.5283,1508.1714" style="stroke:#616974;stroke-width:1.0;"/><line style="stroke:#616974;stroke-width:1.0;" x1="244.5283" x2="244.5283" y1="1590.0464" y2="1622.0464"/><polygon fill="#616974" points="240.5283,1612.0464,244.5283,1622.0464,248.5283,1612.0464,244.5283,1616.0464" style="stroke:#616974;stroke-width:1.0;"/><line style="stroke:#616974;stroke-width:1.0;" x1="244.5283" x2="244.5283" y1="1656.0151" y2="1676.0151"/><polygon fill="#616974" points="240.5283,1666.0151,244.5283,1676.0151,248.5283,1666.0151,244.5283,1670.0151" style="stroke:#616974;stroke-width:1.0;"/><line style="stroke:#616974;stroke-width:1.0;" x1="244.5283" x2="244.5283" y1="1723.9526" y2="1745.937"/><polygon fill="#616974" points="240.5283,1735.937,244.5283,1745.937,248.5283,1735.937,244.5283,1739.937" style="stroke:#616974;stroke-width:1.0;"/><!--SRC=[hLVDZjj64hxhAMhdCX9CAOwD004dYI6C5NkGH0PcnWaC10XQx9BO4DdDxMwEB0GBvBJOysAVONFO1zZ3tkPH_2JxLJSvzaoSdEA3JOhLNN_VzrNvbEP_tf_9AQdjrdcjDgOnyVZJjd47UlVBl-ZcoUUBnmN5cgdpJbNHtE39TDmOotGmiIRhg7MQ6pAMJ5nCJd7R9IkT3ctSMmwaGdgv_NL9ePE3hT9CDoQOJSDb-XPDovuqLqRZm0ylL-la5NTrlMUogkNGgOgfSctNnsIplAQBAxg-VBqgIDdiCB2DRAlacKps-shzxHjS56jZTuI4FaNWJKEUkqPkJ5cedCI2LZViZzcKcy2I5Tu2agwYH682hjeQQqBDEjNeK9kg7dqXUhEpEQUjQfgDglRKANW8jUaw7DaQ7s91mGtvvU9LofAppP4O_cd3I8ZOrWgfj4Yf89i-A3Zes6gaU4If_rGG_CNOgkdHc9z2F3QywFgscKoYYGtJyaDuP5HyaYef1OZUx7O8xjtV_qa8KgDIwRbLrh8FwVckB_8IdGfnCWbHUVpJuMyJZRDq8drFLzxpTyN-nk3eLFVj1bKII7GkyEo4VfuGbKyUprjfKu8GoikXmC_EqzF75CXjwQ-zuGY8HtnVTjrp5LLPLYZkZlLqTWPZwo8JqgWZNeYkKoSthfU8MnLnC9GeVgsQxNpJcoOIi6EJxJJMde6tnbNxG0bI6jWzeB-ETcucoE2te4vpJFQ7cYskEhaMRoTt1Jkulj5eVBRnpkxcmFHSDSeZkTq2lwFlAL396UKXLi2T0nmegh0VSQp1FM7dsUHl3shxdY-fnfdoPKbJeHX2vX21prhESmXZTUyfmrIZTaNo1qYwmopryv8xvwFKqMnfEbGYuLMgP5a_cmdOBKsjcwK4op7jB-cBpLUlxHvtsIy-sNoLlfwy- -NV5qA9quYeGDKQSjJscMKDR-F9MR9xq3M2mhnSFCsOH0ThPv4IccRrWWOVWs5cKy8X6djoGTg9Cp4v4RbIew41RBtlkrH3UBVE15xGUQqYCErlE8o6KQH2EB58ltpGBA8GNISD546P7ZdCSZVDLWhi-WWcu0sIy-LOiIMoVlSFKCL3G5Z3hbBGFs7VUnjf5JsYhU1FgwCGO6n2vLNR2H0Rf3Yle4J5ZnQO2GrK29x-g2FdhaNBeu8uvpgNOM2WvpdW62YO1dmU03rLzFNhwzUNAqgGJbNY0sguKyREpdwt00zHa4uB1ixkgdCVmTyjr-lLvTKzyEQ9GTFRNxzUF4MsJkdvXfL7YWE0fHggyIZLaO8oEaVvx4SxpGemTzlv4CTiBChx25Ec8blY4nslF4ErZi0B2nWoy4IX4puYRLtlanA5ZoIUQpqsNWBBobJZK7X6j_z55mrc05gD-F2QUArDQ4q8mxGHY7zsrxtGTntq3X_7UAF3a5g_kdvviNxndWd8FipxZWugPEmdQmmUp7ClCC4uCgbr8SfiT0S6PqG6BR_DIOO3SqS2LYbuchM3Sqazg6F03Hz9kchG3j72qB7QptwdjrUhzVLgVPwLILYKHsWUZbtjLO2gfv_E7psY6oTetFNAA_2Jmo1Lwrxl-BmnQCSYdqdNGGRGEILfJEM6ojcjsK7pD9OQqwATiu8-nwZOoFduaNcmTkIHENO5rUmV37Uv6RgQx4PKZjDkEiineytLVgwqpbP-rmjaCaCMj2GhZaNmu1StcqRYJhPf9mWOH1grG6T1OH5dgdjCrmT3GG0bIyqH7ZmQ6sYvVexb0_08a-IYB5LLSHTJMG3iNQoB2VQNc9Uh0hFExpLayjblcN3NZjE0OUL5hegy7MMD0viYFdKObSwgeKN9ZniKZCZt29wcng9CxJm1SOx7ZT758EXs7ceb0sz6QkEmR8eDAY0RoTa7HA8z7uKmlVKo1aMhv5MOXqPDy8WggMJ2RHUFGnA_QP1FesisCYLPfVKc9r303yfrWEgLwTljVp2R85PlXESYgmjHhDl_dNsew0ElfdVNOWLTOGamiHHk0sTjHuzWEUfVPcsjEXdcWDFprRSNtwyktmWlOPOMP2mKAQGmuaIB3y36oQpQEBVVWw2eN1hy9RVWSshwDArm1KpqCO_k2mrPBhy3-7umLikgZo5-BSFmgkEge6_mQrak6yPw9f_MBfgjgPHGDPaL42f8fvyBXmHI5govnvdi1g-opgi6wmnQrOyYblyty6BnAIp1dxOWsMVIPXHLcayGspITKHIPiC6rZCye4eJanQk1npM3LSOMgMDFPel97Hac8a7_1m00]--></g></svg>