<svg xmlns="http://www.w3.org/2000/svg" xmlns:xlink="http://www.w3.org/1999/xlink" contentStyleType="text/css" height="1480px" preserveAspectRatio="none" style="width:691px;height:1480px;background:#FFFFFF;" version="1.1" viewBox="0 0 691 1480" width="691px" zoomAndPan="magnify"><title>The needs-a-block card's height &#8212; bug, over-correction, and the real fix</title><defs/><g><text fill="#2A2E33" font-family="Segoe UI" font-size="14" font-weight="bold" lengthAdjust="spacing" textLength="568.7637" x="54.3682" y="22.9951">The needs-a-block card's height &#8212; bug, over-correction, and the real fix</text><!--cluster v21 ? unbounded--><g id="cluster_v21 &#8212; unbounded"><path d="M430.5,43.2969 L549.7012,43.2969 A6,6 0 0 1 553.7012,47.2969 L560.7012,63.2656 L680.5,63.2656 A4,4 0 0 1 684.5,67.2656 L684.5,583.2969 A4,4 0 0 1 680.5,587.2969 L430.5,587.2969 A4,4 0 0 1 426.5,583.2969 L426.5,47.2969 A4,4 0 0 1 430.5,43.2969 " fill="none" style="stroke:#000000;stroke-width:1.5;"/><line style="stroke:#000000;stroke-width:1.5;" x1="426.5" x2="560.7012" y1="63.2656" y2="63.2656"/><text fill="#2A2E33" font-family="Segoe UI" font-size="12" font-weight="bold" lengthAdjust="spacing" textLength="121.2012" x="430.5" y="56.4355">v21 &#8212; unbounded</text></g><!--cluster v22 ? self-capped (wrong)--><g id="cluster_v22 &#8212; self-capped (wrong)"><path d="M39.5,495.2969 L218.6191,495.2969 A6,6 0 0 1 222.6191,499.2969 L229.6191,515.2656 L398.5,515.2656 A4,4 0 0 1 402.5,519.2656 L402.5,849.2969 A4,4 0 0 1 398.5,853.2969 L39.5,853.2969 A4,4 0 0 1 35.5,849.2969 L35.5,499.2969 A4,4 0 0 1 39.5,495.2969 " fill="none" style="stroke:#000000;stroke-width:1.5;"/><line style="stroke:#000000;stroke-width:1.5;" x1="35.5" x2="229.6191" y1="515.2656" y2="515.2656"/><text fill="#2A2E33" font-family="Segoe UI" font-size="12" font-weight="bold" lengthAdjust="spacing" textLength="181.1191" x="39.5" y="508.4355">v22 &#8212; self-capped (wrong)</text></g><!--cluster v22.1 ? the panel decides--><g id="cluster_v22.1 &#8212; the panel decides"><path d="M47.5,912.2969 L223.3672,912.2969 A6,6 0 0 1 227.3672,916.2969 L234.3672,932.2656 L452.5,932.2656 A4,4 0 0 1 456.5,936.2656 L456.5,1356.2969 A4,4 0 0 1 452.5,1360.2969 L47.5,1360.2969 A4,4 0 0 1 43.5,1356.2969 L43.5,916.2969 A4,4 0 0 1 47.5,912.2969 " fill="none" style="stroke:#000000;stroke-width:1.5;"/><line style="stroke:#000000;stroke-width:1.5;" x1="43.5" x2="234.3672" y1="932.2656" y2="932.2656"/><text fill="#2A2E33" font-family="Segoe UI" font-size="12" font-weight="bold" lengthAdjust="spacing" textLength="177.8672" x="47.5" y="925.4355">v22.1 &#8212; the panel decides</text></g><!--entity b1--><g id="elem_b1"><rect fill="#FFFFFF" height="43.9688" rx="4" ry="4" style="stroke:#616974;stroke-width:0.5;" width="117.0156" x="497" y="75.2969"/><rect fill="#FFFFFF" height="10" style="stroke:#616974;stroke-width:0.5;" width="15" x="594.0156" y="80.2969"/><rect fill="#FFFFFF" height="2" style="stroke:#616974;stroke-width:0.5;" width="4" x="592.0156" y="82.2969"/><rect fill="#FFFFFF" height="2" style="stroke:#616974;stroke-width:0.5;" width="4" x="592.0156" y="86.2969"/><text fill="#2A2E33" font-family="Segoe UI" font-size="12" lengthAdjust="spacing" textLength="77.0156" x="512" y="106.4355">20 due tasks</text></g><!--entity b2--><g id="elem_b2"><rect fill="#FFFFFF" height="43.9688" rx="4" ry="4" style="stroke:#616974;stroke-width:0.5;" width="179.2012" x="466" y="180.2969"/><rect fill="#FFFFFF" height="10" style="stroke:#616974;stroke-width:0.5;" width="15" x="625.2012" y="185.2969"/><rect fill="#FFFFFF" height="2" style="stroke:#616974;stroke-width:0.5;" width="4" x="623.2012" y="187.2969"/><rect fill="#FFFFFF" height="2" style="stroke:#616974;stroke-width:0.5;" width="4" x="623.2012" y="191.2969"/><text fill="#2A2E33" font-family="Segoe UI" font-size="12" lengthAdjust="spacing" textLength="139.2012" x="481" y="211.4355">rows in a QVBoxLayout</text></g><!--entity b3--><g id="elem_b3"><rect fill="#FFFFFF" height="57.9375" rx="4" ry="4" style="stroke:#616974;stroke-width:0.5;" width="152.0723" x="479.5" y="285.2969"/><rect fill="#FFFFFF" height="10" style="stroke:#616974;stroke-width:0.5;" width="15" x="611.5723" y="290.2969"/><rect fill="#FFFFFF" height="2" style="stroke:#616974;stroke-width:0.5;" width="4" x="609.5723" y="292.2969"/><rect fill="#FFFFFF" height="2" style="stroke:#616974;stroke-width:0.5;" width="4" x="609.5723" y="296.2969"/><text fill="#2A2E33" font-family="Segoe UI" font-size="12" lengthAdjust="spacing" textLength="112.0723" x="494.5" y="316.4355">layout minimum =</text><text fill="#2A2E33" font-family="Segoe UI" font-size="12" lengthAdjust="spacing" textLength="94.3594" x="494.5" y="330.4043">SUM of children</text></g><!--entity b4--><g id="elem_b4"><rect fill="#FFFFFF" height="43.9688" rx="4" ry="4" style="stroke:#616974;stroke-width:0.5;" width="226.2051" x="442.5" y="404.2969"/><rect fill="#FFFFFF" height="10" style="stroke:#616974;stroke-width:0.5;" width="15" x="648.7051" y="409.2969"/><rect fill="#FFFFFF" height="2" style="stroke:#616974;stroke-width:0.5;" width="4" x="646.7051" y="411.2969"/><rect fill="#FFFFFF" height="2" style="stroke:#616974;stroke-width:0.5;" width="4" x="646.7051" y="415.2969"/><text fill="#2A2E33" font-family="Segoe UI" font-size="12" lengthAdjust="spacing" textLength="186.2051" x="457.5" y="435.4355">QMainWindow minimum grows</text></g><!--entity b5--><g id="elem_b5"><rect fill="#FFFFFF" height="43.9688" rx="4" ry="4" style="stroke:#616974;stroke-width:0.5;" width="188.5352" x="452" y="527.2969"/><rect fill="#FFFFFF" height="10" style="stroke:#616974;stroke-width:0.5;" width="15" x="620.5352" y="532.2969"/><rect fill="#FFFFFF" height="2" style="stroke:#616974;stroke-width:0.5;" width="4" x="618.5352" y="534.2969"/><rect fill="#FFFFFF" height="2" style="stroke:#616974;stroke-width:0.5;" width="4" x="618.5352" y="538.2969"/><text fill="#2A2E33" font-family="Segoe UI" font-size="12" font-weight="bold" lengthAdjust="spacing" textLength="148.5352" x="467" y="558.4355">window cannot shrink</text></g><!--entity c1--><g id="elem_c1"><rect fill="#FFFFFF" height="43.9688" rx="4" ry="4" style="stroke:#616974;stroke-width:0.5;" width="185.6934" x="138.5" y="527.2969"/><rect fill="#FFFFFF" height="10" style="stroke:#616974;stroke-width:0.5;" width="15" x="304.1934" y="532.2969"/><rect fill="#FFFFFF" height="2" style="stroke:#616974;stroke-width:0.5;" width="4" x="302.1934" y="534.2969"/><rect fill="#FFFFFF" height="2" style="stroke:#616974;stroke-width:0.5;" width="4" x="302.1934" y="538.2969"/><text fill="#2A2E33" font-family="Segoe UI" font-size="12" lengthAdjust="spacing" textLength="145.6934" x="153.5" y="558.4355">QScrollArea, max 280px</text></g><!--entity c2--><g id="elem_c2"><rect fill="#FFFFFF" height="43.9688" rx="4" ry="4" style="stroke:#616974;stroke-width:0.5;" width="164.2129" x="222.5" y="667.2969"/><rect fill="#FFFFFF" height="10" style="stroke:#616974;stroke-width:0.5;" width="15" x="366.7129" y="672.2969"/><rect fill="#FFFFFF" height="2" style="stroke:#616974;stroke-width:0.5;" width="4" x="364.7129" y="674.2969"/><rect fill="#FFFFFF" height="2" style="stroke:#616974;stroke-width:0.5;" width="4" x="364.7129" y="678.2969"/><text fill="#2A2E33" font-family="Segoe UI" font-size="12" lengthAdjust="spacing" textLength="124.2129" x="237.5" y="698.4355">window free again &#10003;</text></g><!--entity c3--><g id="elem_c3"><rect fill="#FFFFFF" height="57.9375" rx="4" ry="4" style="stroke:#616974;stroke-width:0.5;" width="136.2461" x="51.5" y="660.2969"/><rect fill="#FFFFFF" height="10" style="stroke:#616974;stroke-width:0.5;" width="15" x="167.7461" y="665.2969"/><rect fill="#FFFFFF" height="2" style="stroke:#616974;stroke-width:0.5;" width="4" x="165.7461" y="667.2969"/><rect fill="#FFFFFF" height="2" style="stroke:#616974;stroke-width:0.5;" width="4" x="165.7461" y="671.2969"/><text fill="#2A2E33" font-family="Segoe UI" font-size="12" lengthAdjust="spacing" textLength="96.2461" x="66.5" y="691.4355">but sizeHint is a</text><text fill="#2A2E33" font-family="Segoe UI" font-size="12" lengthAdjust="spacing" textLength="95.5254" x="66.5" y="705.4043">CACHED GUESS</text></g><!--entity c4--><g id="elem_c4"><rect fill="#FFFFFF" height="57.9375" rx="4" ry="4" style="stroke:#616974;stroke-width:0.5;" width="205.5977" x="51.5" y="779.2969"/><rect fill="#FFFFFF" height="10" style="stroke:#616974;stroke-width:0.5;" width="15" x="237.0977" y="784.2969"/><rect fill="#FFFFFF" height="2" style="stroke:#616974;stroke-width:0.5;" width="4" x="235.0977" y="786.2969"/><rect fill="#FFFFFF" height="2" style="stroke:#616974;stroke-width:0.5;" width="4" x="235.0977" y="790.2969"/><text fill="#2A2E33" font-family="Segoe UI" font-size="12" font-weight="bold" lengthAdjust="spacing" textLength="165.5977" x="66.5" y="810.4355">card squashed to 2 lines</text><text fill="#2A2E33" font-family="Segoe UI" font-size="12" lengthAdjust="spacing" textLength="138.8203" x="66.5" y="824.4043">over an empty panel &#10007;</text></g><!--entity d1--><g id="elem_d1"><rect fill="#FFFFFF" height="43.9688" rx="4" ry="4" style="stroke:#616974;stroke-width:0.5;" width="174.6484" x="67" y="944.2969"/><rect fill="#FFFFFF" height="10" style="stroke:#616974;stroke-width:0.5;" width="15" x="221.6484" y="949.2969"/><rect fill="#FFFFFF" height="2" style="stroke:#616974;stroke-width:0.5;" width="4" x="219.6484" y="951.2969"/><rect fill="#FFFFFF" height="2" style="stroke:#616974;stroke-width:0.5;" width="4" x="219.6484" y="955.2969"/><text fill="#2A2E33" font-family="Segoe UI" font-size="12" lengthAdjust="spacing" textLength="134.6484" x="82" y="975.4355">GlancePanel::refresh()</text></g><!--entity d2--><g id="elem_d2"><rect fill="#FFFFFF" height="43.9688" rx="4" ry="4" style="stroke:#616974;stroke-width:0.5;" width="115.7676" x="96.5" y="1049.2969"/><rect fill="#FFFFFF" height="10" style="stroke:#616974;stroke-width:0.5;" width="15" x="192.2676" y="1054.2969"/><rect fill="#FFFFFF" height="2" style="stroke:#616974;stroke-width:0.5;" width="4" x="190.2676" y="1056.2969"/><rect fill="#FFFFFF" height="2" style="stroke:#616974;stroke-width:0.5;" width="4" x="190.2676" y="1060.2969"/><text fill="#2A2E33" font-family="Segoe UI" font-size="12" lengthAdjust="spacing" textLength="75.7676" x="111.5" y="1080.4355">gate closed?</text></g><!--entity d3--><g id="elem_d3"><rect fill="#FFFFFF" height="57.9375" rx="4" ry="4" style="stroke:#616974;stroke-width:0.5;" width="172.6621" x="60" y="1167.2969"/><rect fill="#FFFFFF" height="10" style="stroke:#616974;stroke-width:0.5;" width="15" x="212.6621" y="1172.2969"/><rect fill="#FFFFFF" height="2" style="stroke:#616974;stroke-width:0.5;" width="4" x="210.6621" y="1174.2969"/><rect fill="#FFFFFF" height="2" style="stroke:#616974;stroke-width:0.5;" width="4" x="210.6621" y="1178.2969"/><text fill="#2A2E33" font-family="Segoe UI" font-size="12" lengthAdjust="spacing" textLength="86.3672" x="75" y="1198.4355">stretch &#8594; card</text><text fill="#2A2E33" font-family="Segoe UI" font-size="12" lengthAdjust="spacing" textLength="132.6621" x="75" y="1212.4043">(card IS the panel, &#167;E)</text></g><!--entity d4--><g id="elem_d4"><rect fill="#FFFFFF" height="57.9375" rx="4" ry="4" style="stroke:#616974;stroke-width:0.5;" width="171.6953" x="268.5" y="1167.2969"/><rect fill="#FFFFFF" height="10" style="stroke:#616974;stroke-width:0.5;" width="15" x="420.1953" y="1172.2969"/><rect fill="#FFFFFF" height="2" style="stroke:#616974;stroke-width:0.5;" width="4" x="418.1953" y="1174.2969"/><rect fill="#FFFFFF" height="2" style="stroke:#616974;stroke-width:0.5;" width="4" x="418.1953" y="1178.2969"/><text fill="#2A2E33" font-family="Segoe UI" font-size="12" lengthAdjust="spacing" textLength="131.6953" x="283.5" y="1198.4355">stretch &#8594; day content</text><text fill="#2A2E33" font-family="Segoe UI" font-size="12" lengthAdjust="spacing" textLength="124.459" x="283.5" y="1212.4043">card sizes to its strip</text></g><!--entity d5--><g id="elem_d5"><rect fill="#FFFFFF" height="57.9375" rx="4" ry="4" style="stroke:#616974;stroke-width:0.5;" width="202.7441" x="59" y="1286.2969"/><rect fill="#FFFFFF" height="10" style="stroke:#616974;stroke-width:0.5;" width="15" x="241.7441" y="1291.2969"/><rect fill="#FFFFFF" height="2" style="stroke:#616974;stroke-width:0.5;" width="4" x="239.7441" y="1293.2969"/><rect fill="#FFFFFF" height="2" style="stroke:#616974;stroke-width:0.5;" width="4" x="239.7441" y="1297.2969"/><text fill="#2A2E33" font-family="Segoe UI" font-size="12" lengthAdjust="spacing" textLength="115.998" x="74" y="1317.4355">rows fill the height;</text><text fill="#2A2E33" font-family="Segoe UI" font-size="12" lengthAdjust="spacing" textLength="162.7441" x="74" y="1331.4043">scroll only when it runs out</text></g><g id="elem_GMN32"><path d="M6,1411.2969 L6,1469.1719 A4,4 0 0 0 10,1473.1719 L310.707,1473.1719 A4,4 0 0 0 314.707,1469.1719 L314.707,1417.2969 L304.707,1407.2969 L164.5,1407.2969 L160.5,1344.5169 L156.5,1407.2969 L10,1407.2969 A4,4 0 0 0 6,1411.2969 " fill="#FDF6EC" style="stroke:#C9A45C;stroke-width:0.5;"/><path d="M304.707,1407.2969 L304.707,1415.2969 A2,2 0 0 0 306.707,1417.2969 L314.707,1417.2969 L304.707,1407.2969 " fill="#FDF6EC" style="stroke:#C9A45C;stroke-width:0.5;"/><text fill="#5A4A2A" font-family="Segoe UI" font-size="12" lengthAdjust="spacing" textLength="262.2832" x="12" y="1423.4355">The fix that stuck moved the decision UP &#8212;</text><text fill="#5A4A2A" font-family="Segoe UI" font-size="12" lengthAdjust="spacing" textLength="287.707" x="12" y="1437.4043">a child widget cannot know whether it deserves</text><text fill="#5A4A2A" font-family="Segoe UI" font-size="12" lengthAdjust="spacing" textLength="285.9492" x="12" y="1451.373">the room, because that depends on its siblings.</text><text fill="#5A4A2A" font-family="Segoe UI" font-size="12" lengthAdjust="spacing" textLength="231.1641" x="12" y="1465.3418">Only the layout's owner has that view.</text></g><!--link b1 to b2--><g id="link_b1_b2"><path d="M555.5,119.6369 C555.5,137.3169 555.5,156.3169 555.5,173.9869 " fill="none" id="b1-to-b2" style="stroke:#616974;stroke-width:1.0;"/><polygon fill="#616974" points="555.5,179.9869,559.5,170.9869,555.5,174.9869,551.5,170.9869,555.5,179.9869" style="stroke:#616974;stroke-width:1.0;"/></g><!--link b2 to b3--><g id="link_b2_b3"><path d="M555.5,224.5069 C555.5,241.7369 555.5,260.1969 555.5,279.0769 " fill="none" id="b2-to-b3" style="stroke:#616974;stroke-width:1.0;"/><polygon fill="#616974" points="555.5,285.0769,559.5,276.0769,555.5,280.0769,551.5,276.0769,555.5,285.0769" style="stroke:#616974;stroke-width:1.0;"/></g><!--link b3 to b4--><g id="link_b3_b4"><path d="M555.5,343.3369 C555.5,362.3069 555.5,380.9569 555.5,398.2569 " fill="none" id="b3-to-b4" style="stroke:#616974;stroke-width:1.0;"/><polygon fill="#616974" points="555.5,404.2569,559.5,395.2569,555.5,399.2569,551.5,395.2569,555.5,404.2569" style="stroke:#616974;stroke-width:1.0;"/></g><!--link b4 to b5--><g id="link_b4_b5"><path d="M553.93,448.3769 C552.29,470.4469 550.1759,498.9335 548.5259,521.0735 " fill="none" id="b4-to-b5" style="stroke:#616974;stroke-width:1.0;"/><polygon fill="#616974" points="548.08,527.0569,552.7378,518.379,548.4516,522.0707,544.7599,517.7845,548.08,527.0569" style="stroke:#616974;stroke-width:1.0;"/></g><!--link c1 to c2--><g id="link_c1_c2"><path d="M242.75,571.5569 C256.5,597.5669 276.8438,636.0236 290.5538,661.9336 " fill="none" id="c1-to-c2" style="stroke:#616974;stroke-width:1.0;"/><polygon fill="#616974" points="293.36,667.2369,292.6863,657.4111,291.0215,662.8174,285.6152,661.1527,293.36,667.2369" style="stroke:#616974;stroke-width:1.0;"/></g><!--link c1 to c3--><g id="link_c1_c3"><path d="M214.25,571.5569 C194.98,595.2969 167.4916,629.1686 146.1816,655.4186 " fill="none" id="c1-to-c3" style="stroke:#616974;stroke-width:1.0;"/><polygon fill="#616974" points="142.4,660.0769,151.1779,655.6106,145.5513,656.195,144.9669,650.5684,142.4,660.0769" style="stroke:#616974;stroke-width:1.0;"/></g><!--link c3 to c4--><g id="link_c3_c4"><path d="M127.88,718.3169 C133.38,736.7069 138.8314,754.9183 144.3414,773.3483 " fill="none" id="c3-to-c4" style="stroke:#616974;stroke-width:1.0;"/><polygon fill="#616974" points="146.06,779.0969,147.3144,769.3282,144.6278,774.3064,139.6496,771.6198,146.06,779.0969" style="stroke:#616974;stroke-width:1.0;"/></g><!--link d1 to d2--><g id="link_d1_d2"><path d="M154.5,988.6369 C154.5,1006.3169 154.5,1025.3169 154.5,1042.9869 " fill="none" id="d1-to-d2" style="stroke:#616974;stroke-width:1.0;"/><polygon fill="#616974" points="154.5,1048.9869,158.5,1039.9869,154.5,1043.9869,150.5,1039.9869,154.5,1048.9869" style="stroke:#616974;stroke-width:1.0;"/></g><!--link d2 to d3--><g id="link_d2_d3"><path d="M153.12,1093.4369 C151.8,1113.7769 150.1771,1138.6494 148.7271,1161.0794 " fill="none" id="d2-to-d3" style="stroke:#616974;stroke-width:1.0;"/><polygon fill="#616974" points="148.34,1167.0669,152.9123,1158.3437,148.6626,1162.0773,144.9289,1157.8276,148.34,1167.0669" style="stroke:#616974;stroke-width:1.0;"/><text fill="#616974" font-family="Segoe UI" font-size="11" lengthAdjust="spacing" textLength="19.0083" x="152.5" y="1134.5073">yes</text></g><!--link d2 to d4--><g id="link_d2_d4"><path d="M188.88,1093.4369 C222.05,1113.8369 267.3591,1141.7039 303.8491,1164.1439 " fill="none" id="d2-to-d4" style="stroke:#616974;stroke-width:1.0;"/><polygon fill="#616974" points="308.96,1167.2869,303.389,1159.1651,304.7009,1164.6677,299.1983,1165.9796,308.96,1167.2869" style="stroke:#616974;stroke-width:1.0;"/><text fill="#616974" font-family="Segoe UI" font-size="11" lengthAdjust="spacing" textLength="13.7017" x="255.5" y="1134.5073">no</text></g><!--link d3 to d5--><g id="link_d3_d5"><path d="M149.85,1225.3169 C152.05,1243.7069 154.2056,1261.7096 156.4156,1280.1396 " fill="none" id="d3-to-d5" style="stroke:#616974;stroke-width:1.0;"/><polygon fill="#616974" points="157.13,1286.0969,160.03,1276.6847,156.5347,1281.1324,152.0869,1277.6371,157.13,1286.0969" style="stroke:#616974;stroke-width:1.0;"/></g><!--link b5 to c2--><g id="link_b5_c2"><path d="M509.48,571.4069 C463.93,597.3769 392.2723,638.2451 346.7223,664.2151 " fill="none" id="b5-to-c2" style="stroke:#616974;stroke-width:1.0;stroke-dasharray:7.0,7.0;"/><polygon fill="#616974" points="341.51,667.1869,351.3097,666.2041,345.8536,664.7104,347.3473,659.2543,341.51,667.1869" style="stroke:#616974;stroke-width:1.0;"/><text fill="#616974" font-family="Segoe UI" font-size="11" lengthAdjust="spacing" textLength="171.8267" x="447.5" y="614.5073">the scroll area's small constant</text><text fill="#616974" font-family="Segoe UI" font-size="11" lengthAdjust="spacing" textLength="159.6021" x="453.6123" y="627.312">MINIMUM survives into v22.1</text></g><!--link c4 to d1--><g id="link_c4_d1"><path d="M154.5,837.5469 C154.5,868.2769 154.5,910.6869 154.5,938.2469 " fill="none" id="c4-to-d1" style="stroke:#616974;stroke-width:1.0;stroke-dasharray:7.0,7.0;"/><polygon fill="#616974" points="154.5,944.2469,158.5,935.2469,154.5,939.2469,150.5,935.2469,154.5,944.2469" style="stroke:#616974;stroke-width:1.0;"/><text fill="#616974" font-family="Segoe UI" font-size="11" font-weight="bold" lengthAdjust="spacing" textLength="178.1646" x="155.5" y="880.5073">stretch factors CLAIM space;</text><text fill="#616974" font-family="Segoe UI" font-size="11" font-weight="bold" lengthAdjust="spacing" textLength="127.4775" x="180.8435" y="893.312">hints only suggest it</text></g><!--SRC=[hLNDRYD54BxFKnIv994Sit4SjCekGI54sKZhtGrEu68fwfckcMdSqprqztXY418d7W2Gk73dFNYKF0bLtR5txG2dpINjwQ_-llggUXSEFjvVjWi6KVfSss9-LwEgwd2Nsyv8UFZvTmWrfli3SH0XK0WdTpqav02K8On31544FoHlvzOiq0MKK3hRm0HT8vHCE8J5wBFXSn2TL07s318I71g9Zl2T2Kg3iVq- -I5FNwCWkm0Qom31WkE883m8a9XtLQLC1JvOjnn0ZeNeF58C4K1vwED_Ffw085y47v1TgUuJf70eE4S17WjBnIO07JZBDQnKHcYz1AeymkcId4aib5VMh8fAYTdyEop246xeIt32-1ATo3LI_jupsA_meRSWXQzHaZFXdEsffX2lSXi2iSRKKshg1tobJ2n8mFJsyl9YUdFrzatCaww3mr3KK1BrraKGy__wx6gIIg72oiupIwkeaPabzoh-rDREgQf7OibYtOlUMLDnEp-cr3vHfj2THBZpOQbns7QDphAW0f5qy_z2Yup47bdIp45XdIEogGVlcqOTrTovB6j5CHSLmivYT1WDEnCLZN87Vio0U6bQQv28tHaz0zaHDyBF_GvhAp_S1CJcKDy4N7_pfRr_BPQs2mavsaJgU0MDCghf6lXyPgQt4x0b5BNIafXDLaURLjSJeSotoaZRhqqh3fhGuqtqo_oqJzX266C3-DefCt_vQNwQyCU4pm-fQwSfltoKpXmrFqfdzfcFq_au-sc3hr7aowCk3mhHjgI4lIY5_IVCNKyBPxK-8ze7q8Xx63r_rjx7B8ej3XzJBkEQgAXUUFZpjuJSuZ0d0ZTKFpFdP-UlBhw2ozkBwJJP73tXXAK2_likpXIlYX5ePT0pBpF3YY6L03PjM48h36fAu8_aB1AS24l9F9vZa4GOORP86XwkbsDonnj1edz2qgKMfi1tZ3avSKWC-7flFqQMMoHLj62WqDQZ_281jhXPZVl3Bx_6sPYPlLZtrVHz8WFu-w-BH_z7_sqknPANGw2BcKda4UcUcLF1ys9HRN8o_fTfA9NMCMGQpHSpuwCKm1fQbNsDXZUlwuo7rQn8rgLCrCQwPDAbF88JMAB_uCkOlXZB7nBxCaeqFuRXa5j4jnpwCQ8WzT6Ey0rjQQx81y4bJQxUN4re-7pd5cg1FC1KMcnSLeoZ9qhc14WwcqlKf_K9dhgDBv9y25IJlK_bUNftqFFRmhTPHaEutjeqwx7Gcm-V41ywMcODYJ2jgVNZSVkEHKHmaJO4z4fM65QJFQU7aCaa6yTyahpGBI9LSTjPssmzUn9RMj-SP-gYoca8AdgK0TvowcoMbXHHPdj3VclgJRHTAEo76Pa35_GF]--></g></svg>